<svg width="200" height="200" viewBox="0 0 200 200" fill="none" xmlns="http://www.w3.org/2000/svg">
<path d="M105.321 58.006V67.3723H92.537V106H80.784V67.3723H68V58.006H105.321Z" fill="white"/>
<path d="M94.6791 105.994V96.6277H107.463V58H119.216V96.6277H132V105.994H94.6791Z" fill="white"/>
<path d="M44.2956 118.92L38.7916 119.112L37.6716 125.8H35.5596L36.1036 117.224H56.0396L56.4236 125.8H54.4076L53.3516 119.112L47.8156 118.92V139.112L52.3596 139.432V141H40.1356V139.432L44.2956 139.112V118.92ZM58.6759 139.432L61.0759 139.24V125.704L58.7719 125.128V123.4L63.1879 122.824H63.2519L63.9559 123.4V123.976L63.8599 126.472H63.9559C64.1692 126.109 64.5532 125.64 65.1079 125.064C65.6625 124.488 66.3772 123.965 67.2519 123.496C68.1265 123.005 69.0759 122.76 70.0999 122.76C70.5265 122.76 70.8785 122.813 71.1559 122.92V126.504C71.0065 126.397 70.7612 126.301 70.4199 126.216C70.0999 126.109 69.7372 126.056 69.3319 126.056C67.5612 126.056 65.9185 126.6 64.4039 127.688V139.208L68.4679 139.464V141H58.6759V139.432ZM73.2681 136.2C73.2681 134.195 74.2708 132.723 76.2761 131.784C78.2815 130.824 80.8201 130.312 83.8921 130.248V129.352C83.8921 128.349 83.7855 127.56 83.5721 126.984C83.3588 126.408 82.9855 125.992 82.4521 125.736C81.9401 125.459 81.2041 125.32 80.2441 125.32C79.1561 125.32 78.1748 125.48 77.3001 125.8C76.4468 126.099 75.5935 126.472 74.7401 126.92L73.9401 125.256C74.2175 125.021 74.7295 124.712 75.4761 124.328C76.2228 123.944 77.0868 123.603 78.0681 123.304C79.0495 123.005 80.0308 122.856 81.0121 122.856C82.5268 122.856 83.7215 123.069 84.5961 123.496C85.4921 123.901 86.1321 124.563 86.5161 125.48C86.9001 126.397 87.0921 127.624 87.0921 129.16V139.432H88.9801V140.84C88.5535 140.947 88.0095 141.053 87.3481 141.16C86.7081 141.267 86.1428 141.32 85.6521 141.32C85.0548 141.32 84.6495 141.224 84.4361 141.032C84.2228 140.861 84.1161 140.467 84.1161 139.848V138.792C83.4761 139.432 82.6868 140.019 81.7481 140.552C80.8308 141.085 79.7855 141.352 78.6121 141.352C77.0761 141.352 75.7961 140.915 74.7721 140.04C73.7695 139.144 73.2681 137.864 73.2681 136.2ZM79.9881 139.176C80.5428 139.176 81.1828 139.005 81.9081 138.664C82.6335 138.323 83.2948 137.917 83.8921 137.448V131.944C81.5668 131.944 79.8068 132.307 78.6121 133.032C77.4388 133.736 76.8521 134.664 76.8521 135.816C76.8521 136.968 77.1295 137.821 77.6841 138.376C78.2601 138.909 79.0281 139.176 79.9881 139.176ZM89.7336 123.24H97.1576V124.744L94.8856 125.16L98.1176 134.376L99.4616 138.44L100.614 134.504L103.846 125.16L101.67 124.744V123.24H108.166V124.744L106.502 125.16L100.326 141.256H97.6056L91.1736 125.16L89.7336 124.744V123.24ZM117.265 141.352C114.684 141.352 112.71 140.509 111.345 138.824C110.001 137.139 109.329 134.888 109.329 132.072C109.329 130.216 109.681 128.584 110.385 127.176C111.089 125.768 112.07 124.68 113.329 123.912C114.609 123.144 116.06 122.76 117.681 122.76C119.665 122.76 121.201 123.315 122.289 124.424C123.398 125.512 123.985 127.08 124.049 129.128C124.049 130.429 123.974 131.421 123.825 132.104H112.817C112.86 134.216 113.35 135.923 114.289 137.224C115.228 138.504 116.561 139.144 118.289 139.144C119.142 139.144 120.028 138.995 120.945 138.696C121.884 138.376 122.609 138.003 123.121 137.576L123.729 138.984C123.11 139.624 122.193 140.179 120.977 140.648C119.761 141.117 118.524 141.352 117.265 141.352ZM120.529 130.408C120.593 129.96 120.625 129.501 120.625 129.032C120.604 127.645 120.305 126.557 119.729 125.768C119.174 124.957 118.289 124.552 117.073 124.552C115.836 124.552 114.844 125 114.097 125.896C113.372 126.792 112.956 128.296 112.849 130.408H120.529ZM129.135 117.128L126.543 116.776V115.4L131.695 114.792H131.759L132.463 115.272V139.176L135.183 139.432V141H126.543V139.432L129.135 139.144V117.128ZM139.792 117.128L137.2 116.776V115.4L142.352 114.792H142.416L143.12 115.272V139.176L145.84 139.432V141H137.2V139.432L139.792 139.144V117.128ZM150.704 148.968C150.341 148.968 149.979 148.947 149.616 148.904C149.275 148.861 149.029 148.797 148.88 148.712V145.928C149.008 146.013 149.253 146.077 149.616 146.12C150 146.163 150.363 146.184 150.704 146.184C151.728 146.184 152.624 145.821 153.392 145.096C154.181 144.392 154.939 143.027 155.664 141H154.128L148.048 125.16L146.576 124.744V123.24H154.288V124.744L151.824 125.128L154.96 134.568L156.432 139.24L157.808 134.536L160.656 125.128L158.512 124.744V123.24H164.944V124.744L163.344 125.128C160.208 134.728 158.363 140.179 157.808 141.48C157.083 143.315 156.421 144.744 155.824 145.768C155.227 146.813 154.523 147.603 153.712 148.136C152.901 148.691 151.899 148.968 150.704 148.968Z" fill="white"/>
</svg>
